<?xml version="1.0" encoding="UTF-8"?>
<svg width="365px" height="268px" viewBox="0 0 365 268" version="1.1" xmlns="http://www.w3.org/2000/svg" xmlns:xlink="http://www.w3.org/1999/xlink">
    <title>ic_</title>
    <g id="ic_" stroke="none" stroke-width="1" fill="none" fill-rule="evenodd" stroke-linecap="round">
        <g id="Group" transform="translate(2.000000, 5.000000)" stroke="#333333" stroke-linejoin="round">
            <g id="Path-3">
                <polyline transform="translate(6.000000, 3.000000) rotate(270.000000) translate(-6.000000, -3.000000) " points="9 -3 5.84941217 0.150587829 3 3 9 9"></polyline>
            </g>
        </g>
        <g id="Group" transform="translate(52.000000, 5.000000)" stroke="#333333" stroke-linejoin="round">
            <g id="Path-3">
                <polyline transform="translate(6.000000, 3.000000) rotate(90.000000) translate(-6.000000, -3.000000) " points="9 -3 5.84941217 0.150587829 3 3 9 9"></polyline>
            </g>
        </g>
        <g id="Group" transform="translate(101.333333, 1.333333)" stroke="#333333">
            <line x1="6.66666667" y1="0" x2="6.66666667" y2="13.3333333" id="Line-5-Copy-2"></line>
            <line x1="6.66666667" y1="0" x2="6.66666667" y2="13.3333333" id="Line-5-Copy-3" transform="translate(6.666667, 6.666667) rotate(90.000000) translate(-6.666667, -6.666667) "></line>
        </g>
        <g id="Group" transform="translate(155.000000, 1.000000)" stroke="#333333" stroke-linejoin="round">
            <g id="foundation-/-ic-/-ic_arrow_l">
                <polyline id="Path-7-Copy-2" transform="translate(3.256821, 6.990673) rotate(-180.000000) translate(-3.256821, -6.990673) " points="4.33737646e-17 0 6.51364105 7.00732559 0 13.9813451"></polyline>
            </g>
        </g>
        <g id="Group" transform="translate(205.000000, 1.000000)" stroke="#333333" stroke-linejoin="round">
            <g id="foundation-/-ic-/-ic_arrow_l" transform="translate(3.256821, 6.990673) rotate(-180.000000) translate(-3.256821, -6.990673) translate(0.000000, -0.000000)">
                <polyline id="Path-7-Copy-2" transform="translate(3.256821, 6.990673) rotate(-180.000000) translate(-3.256821, -6.990673) " points="4.33737646e-17 0 6.51364105 7.00732559 0 13.9813451"></polyline>
            </g>
        </g>
    </g>
</svg>